####
#
#	OBJ File Generated by LightWave3D
#	LightWave3D OBJ Export v2.3
#
####
o 10m_marble_cube.obj
mtllib 10m_marble_cube.mtl
g default
v -5 0 5
v 5 0 5
v 5 0 -5
v -5 0 -5
v -5 10 5
v 5 10 5
v 5 10 -5
v -5 10 -5
vt 0 0
vt 0 1
vt 1 0
vt 1 1
vn 0 -1 -0
vn 0 -1 -0
vn 0 -1 -0
vn 0 -1 -0
vn 0 0 1
vn 0 0 1
vn 0 0 1
vn 0 0 1
vn 1 0 -0
vn 1 0 -0
vn 1 0 -0
vn 1 0 -0
vn 0 0 -1
vn 0 0 -1
vn 0 0 -1
vn 0 0 -1
vn -1 0 -0
vn -1 0 -0
vn -1 0 -0
vn -1 0 -0
vn 0 1 -0
vn 0 1 -0
vn 0 1 -0
vn 0 1 -0
g marble_cube
usemtl marble_cube
s 1
f 4/2/1 3/4/2 2/3/3 1/1/4
f 2/3/5 6/4/6 5/2/7 1/1/8
f 3/3/9 7/4/10 6/2/11 2/1/12
f 8/2/13 7/4/14 3/3/15 4/1/16
f 5/2/17 8/4/18 4/3/19 1/1/20
f 6/3/21 7/4/22 8/2/23 5/1/24
