####
#
#	OBJ File Generated by LightWave3D
#	LightWave3D OBJ Export v2.3
#
####
o road-straight.obj
mtllib road-straight.mtl
g default
v -5 0 5
v -5 0 -5
v -4.76 0.04 5
v -4.76 0.04 -5
v -4.7105 0.04 5
v -4.7105 0.04 -5
v -4.64348 0 5
v -4.64348 0 -5
v 5 0 5
v 5 0 -5
vn -0.0824805 0.996593 -0
vn -0.0824805 0.996593 -0
vn -0.164399 0.986394 -0
vn -0.164399 0.986394 -0
vn 0.265826 0.964021 -0
vn -0.0824805 0.996593 -0
vn -0.0824805 0.996593 -0
vn 0.265826 0.964021 -0
vn 0.265826 0.964021 -0
vn 0.265826 0.964021 -0
vn 0.265826 0.964021 -0
vn 0.265826 0.964021 -0
vn -0 1 -0
vn -0 1 -0
vn -0 1 -0
vn -0 1 -0
g road_bumper
usemtl road_bumper
s 1
f 3//1 4//2 2//3 1//4
f 6//5 4//6 3//7 5//8
f 8//9 6//10 5//11 7//12
g road
usemtl road
s off
f 7//13 9//14 10//15 8//16
